<mxfile host="app.diagrams.net" modified="2024-06-09T21:51:14.090Z" agent="Mozilla/5.0 (Windows NT 10.0; Win64; x64) AppleWebKit/537.36 (KHTML, like Gecko) Chrome/123.0.0.0 Safari/537.36 OPR/109.0.0.0" etag="sG0xZwqoQfWUiNG-zCxq" version="24.5.2" type="device">
  <diagram name="Страница — 1" id="UfoxVFw4hbYroJYcwu6v">
    <mxGraphModel dx="2466" dy="2107" grid="1" gridSize="10" guides="1" tooltips="1" connect="1" arrows="1" fold="1" page="1" pageScale="1" pageWidth="827" pageHeight="1169" math="0" shadow="0">
      <root>
        <mxCell id="0" />
        <mxCell id="1" parent="0" />
        <mxCell id="X6mfz31qRL9-IjD52ETg-84" value="" style="html=1;whiteSpace=wrap;fontColor=default;fontSize=16;" vertex="1" parent="1">
          <mxGeometry x="445" y="1110" width="270" height="35" as="geometry" />
        </mxCell>
        <mxCell id="X6mfz31qRL9-IjD52ETg-59" value="" style="html=1;whiteSpace=wrap;fontSize=16;swimlaneLine=1;fontColor=default;" vertex="1" parent="1">
          <mxGeometry x="370" y="754" width="430" height="166" as="geometry" />
        </mxCell>
        <mxCell id="X6mfz31qRL9-IjD52ETg-32" value="" style="html=1;whiteSpace=wrap;fontSize=16;fontFamily=Helvetica;swimlaneLine=1;fontColor=default;" vertex="1" parent="1">
          <mxGeometry x="290" y="302" width="590" height="248" as="geometry" />
        </mxCell>
        <mxCell id="X6mfz31qRL9-IjD52ETg-13" value="&lt;span style=&quot;font-size: 16px; text-align: start; text-wrap: nowrap;&quot;&gt;AddressBook&lt;/span&gt;" style="swimlane;fontStyle=1;align=center;verticalAlign=top;childLayout=stackLayout;horizontal=1;startSize=26;horizontalStack=0;resizeParent=1;resizeParentMax=0;resizeLast=0;collapsible=1;marginBottom=0;whiteSpace=wrap;html=1;fontSize=16;fontFamily=Helvetica;swimlaneLine=1;fontColor=default;" vertex="1" parent="1">
          <mxGeometry x="290" y="250" width="590" height="52" as="geometry" />
        </mxCell>
        <mxCell id="X6mfz31qRL9-IjD52ETg-14" value="&lt;span style=&quot;font-size: 16px; text-wrap: nowrap;&quot;&gt;-data: dict&lt;/span&gt;" style="text;align=left;verticalAlign=top;spacingLeft=4;spacingRight=4;overflow=hidden;rotatable=0;points=[[0,0.5],[1,0.5]];portConstraint=eastwest;whiteSpace=wrap;html=1;fontSize=16;fontFamily=Helvetica;swimlaneLine=1;fillColor=default;fontColor=default;" vertex="1" parent="X6mfz31qRL9-IjD52ETg-13">
          <mxGeometry y="26" width="590" height="26" as="geometry" />
        </mxCell>
        <mxCell id="X6mfz31qRL9-IjD52ETg-21" value="&lt;span style=&quot;font-size: 16px; text-wrap: nowrap;&quot;&gt;+add_record(record: Record)&lt;/span&gt;" style="text;align=left;verticalAlign=top;spacingLeft=4;spacingRight=4;overflow=hidden;rotatable=0;points=[[0,0.5],[1,0.5]];portConstraint=eastwest;whiteSpace=wrap;html=1;fontStyle=0;fontSize=16;fontFamily=Helvetica;swimlaneLine=1;fontColor=default;" vertex="1" parent="1">
          <mxGeometry x="290" y="304" width="250" height="26" as="geometry" />
        </mxCell>
        <mxCell id="X6mfz31qRL9-IjD52ETg-22" value="&lt;span style=&quot;font-size: 16px; text-wrap: nowrap;&quot;&gt;+find(name: str) : : Record&lt;/span&gt;" style="text;align=left;verticalAlign=top;spacingLeft=4;spacingRight=4;overflow=hidden;rotatable=0;points=[[0,0.5],[1,0.5]];portConstraint=eastwest;whiteSpace=wrap;html=1;fontSize=16;fontFamily=Helvetica;swimlaneLine=1;fontColor=default;" vertex="1" parent="1">
          <mxGeometry x="290" y="330" width="250" height="26" as="geometry" />
        </mxCell>
        <mxCell id="X6mfz31qRL9-IjD52ETg-23" value="&lt;span style=&quot;font-size: 16px; text-wrap: nowrap;&quot;&gt;+delete(name: str)&lt;/span&gt;" style="text;align=left;verticalAlign=top;spacingLeft=4;spacingRight=4;overflow=hidden;rotatable=0;points=[[0,0.5],[1,0.5]];portConstraint=eastwest;whiteSpace=wrap;html=1;fontSize=16;fontFamily=Helvetica;swimlaneLine=1;fontColor=default;" vertex="1" parent="1">
          <mxGeometry x="290" y="360" width="250" height="26" as="geometry" />
        </mxCell>
        <mxCell id="X6mfz31qRL9-IjD52ETg-24" value="&lt;span style=&quot;font-size: 16px; text-wrap: nowrap;&quot;&gt;+string_to_date(date_string: str) : : datetime.date&lt;/span&gt;" style="text;align=left;verticalAlign=top;spacingLeft=4;spacingRight=4;overflow=hidden;rotatable=0;points=[[0,0.5],[1,0.5]];portConstraint=eastwest;whiteSpace=wrap;html=1;fontSize=16;fontFamily=Helvetica;swimlaneLine=1;fontColor=default;" vertex="1" parent="1">
          <mxGeometry x="290" y="386" width="390" height="26" as="geometry" />
        </mxCell>
        <mxCell id="X6mfz31qRL9-IjD52ETg-25" value="&lt;span style=&quot;font-size: 16px; text-wrap: nowrap;&quot;&gt;+date_to_string(date: datetime.date) : : str&lt;/span&gt;" style="text;align=left;verticalAlign=top;spacingLeft=4;spacingRight=4;overflow=hidden;rotatable=0;points=[[0,0.5],[1,0.5]];portConstraint=eastwest;whiteSpace=wrap;html=1;fontSize=16;fontFamily=Helvetica;swimlaneLine=1;fontColor=default;" vertex="1" parent="1">
          <mxGeometry x="290" y="412" width="350" height="26" as="geometry" />
        </mxCell>
        <mxCell id="X6mfz31qRL9-IjD52ETg-26" value="&lt;span style=&quot;font-size: 16px; text-wrap: nowrap;&quot;&gt;+prepare_user_list() : : list&lt;/span&gt;" style="text;align=left;verticalAlign=top;spacingLeft=4;spacingRight=4;overflow=hidden;rotatable=0;points=[[0,0.5],[1,0.5]];portConstraint=eastwest;whiteSpace=wrap;html=1;fontSize=16;fontFamily=Helvetica;swimlaneLine=1;fontColor=default;" vertex="1" parent="1">
          <mxGeometry x="290" y="438" width="380" height="26" as="geometry" />
        </mxCell>
        <mxCell id="X6mfz31qRL9-IjD52ETg-27" value="&lt;span style=&quot;font-size: 16px; text-wrap: nowrap;&quot;&gt;+find_next_weekday(start_date: datetime.date, weekday: int) : : datetime.date&lt;/span&gt;" style="text;align=left;verticalAlign=top;spacingLeft=4;spacingRight=4;overflow=hidden;rotatable=0;points=[[0,0.5],[1,0.5]];portConstraint=eastwest;whiteSpace=wrap;html=1;fontSize=16;fontFamily=Helvetica;swimlaneLine=1;fontColor=default;" vertex="1" parent="1">
          <mxGeometry x="290" y="464" width="630" height="26" as="geometry" />
        </mxCell>
        <mxCell id="X6mfz31qRL9-IjD52ETg-28" value="&lt;span style=&quot;font-size: 16px; text-wrap: nowrap;&quot;&gt;+adjust_for_weekend(birthday: datetime.date) : : datetime.date&lt;/span&gt;" style="text;align=left;verticalAlign=top;spacingLeft=4;spacingRight=4;overflow=hidden;rotatable=0;points=[[0,0.5],[1,0.5]];portConstraint=eastwest;whiteSpace=wrap;html=1;fontSize=16;fontFamily=Helvetica;swimlaneLine=1;fontColor=default;" vertex="1" parent="1">
          <mxGeometry x="290" y="516" width="590" height="26" as="geometry" />
        </mxCell>
        <mxCell id="X6mfz31qRL9-IjD52ETg-29" value="&lt;span style=&quot;font-size: 16px; text-wrap: nowrap;&quot;&gt;+get_upcoming_birthdays(days=7) : : list&lt;/span&gt;" style="text;align=left;verticalAlign=top;spacingLeft=4;spacingRight=4;overflow=hidden;rotatable=0;points=[[0,0.5],[1,0.5]];portConstraint=eastwest;whiteSpace=wrap;html=1;fontSize=16;fontFamily=Helvetica;swimlaneLine=1;fontColor=default;" vertex="1" parent="1">
          <mxGeometry x="290" y="490" width="590" height="26" as="geometry" />
        </mxCell>
        <mxCell id="X6mfz31qRL9-IjD52ETg-38" style="edgeStyle=orthogonalEdgeStyle;rounded=0;orthogonalLoop=1;jettySize=auto;html=1;entryX=0.5;entryY=1;entryDx=0;entryDy=0;fontSize=16;fontFamily=Helvetica;swimlaneLine=1;fontColor=default;" edge="1" parent="1" source="X6mfz31qRL9-IjD52ETg-34" target="X6mfz31qRL9-IjD52ETg-32">
          <mxGeometry relative="1" as="geometry" />
        </mxCell>
        <mxCell id="X6mfz31qRL9-IjD52ETg-34" value="&lt;span style=&quot;font-size: 16px; font-weight: 700; text-align: start; text-wrap: nowrap;&quot;&gt;Record&lt;/span&gt;" style="swimlane;fontStyle=0;childLayout=stackLayout;horizontal=1;startSize=26;horizontalStack=0;resizeParent=1;resizeParentMax=0;resizeLast=0;collapsible=1;marginBottom=0;whiteSpace=wrap;html=1;fontSize=16;fontFamily=Helvetica;swimlaneLine=1;fontColor=default;" vertex="1" parent="1">
          <mxGeometry x="370" y="650" width="430" height="104" as="geometry" />
        </mxCell>
        <mxCell id="X6mfz31qRL9-IjD52ETg-35" value="&lt;span style=&quot;font-size: 16px; text-wrap: nowrap;&quot;&gt;-name: Name&lt;/span&gt;" style="text;align=left;verticalAlign=top;spacingLeft=4;spacingRight=4;overflow=hidden;rotatable=0;points=[[0,0.5],[1,0.5]];portConstraint=eastwest;whiteSpace=wrap;html=1;fontSize=16;fontFamily=Helvetica;swimlaneLine=1;fillColor=default;fontColor=default;" vertex="1" parent="X6mfz31qRL9-IjD52ETg-34">
          <mxGeometry y="26" width="430" height="26" as="geometry" />
        </mxCell>
        <mxCell id="X6mfz31qRL9-IjD52ETg-36" value="&lt;span style=&quot;font-size: 16px; text-wrap: nowrap;&quot;&gt;-phones: list[Phone]&lt;/span&gt;" style="text;align=left;verticalAlign=top;spacingLeft=4;spacingRight=4;overflow=hidden;rotatable=0;points=[[0,0.5],[1,0.5]];portConstraint=eastwest;whiteSpace=wrap;html=1;fontSize=16;fontFamily=Helvetica;swimlaneLine=1;fillColor=default;fontColor=default;" vertex="1" parent="X6mfz31qRL9-IjD52ETg-34">
          <mxGeometry y="52" width="430" height="26" as="geometry" />
        </mxCell>
        <mxCell id="X6mfz31qRL9-IjD52ETg-37" value="&lt;span style=&quot;font-size: 16px; text-wrap: nowrap;&quot;&gt;-birthday: Birthday&lt;/span&gt;" style="text;align=left;verticalAlign=top;spacingLeft=4;spacingRight=4;overflow=hidden;rotatable=0;points=[[0,0.5],[1,0.5]];portConstraint=eastwest;whiteSpace=wrap;html=1;fontSize=16;fontFamily=Helvetica;swimlaneLine=1;fillColor=default;fontColor=default;" vertex="1" parent="X6mfz31qRL9-IjD52ETg-34">
          <mxGeometry y="78" width="430" height="26" as="geometry" />
        </mxCell>
        <mxCell id="X6mfz31qRL9-IjD52ETg-39" value="&lt;span style=&quot;font-size: 16px; text-wrap: nowrap;&quot;&gt;+add_phone(phone: str) : : Phone&lt;/span&gt;" style="text;align=left;verticalAlign=top;spacingLeft=4;spacingRight=4;overflow=hidden;rotatable=0;points=[[0,0.5],[1,0.5]];portConstraint=eastwest;whiteSpace=wrap;html=1;fontSize=16;fontFamily=Helvetica;swimlaneLine=1;fontColor=default;" vertex="1" parent="1">
          <mxGeometry x="370" y="754" width="420" height="36" as="geometry" />
        </mxCell>
        <mxCell id="X6mfz31qRL9-IjD52ETg-40" value="&lt;span style=&quot;font-size: 16px; text-wrap: nowrap;&quot;&gt;+find_phone(phone: str) : : Phone&lt;/span&gt;" style="text;align=left;verticalAlign=top;spacingLeft=4;spacingRight=4;overflow=hidden;rotatable=0;points=[[0,0.5],[1,0.5]];portConstraint=eastwest;whiteSpace=wrap;html=1;fontSize=16;fontFamily=Helvetica;swimlaneLine=1;fontColor=default;" vertex="1" parent="1">
          <mxGeometry x="370" y="790" width="420" height="36" as="geometry" />
        </mxCell>
        <mxCell id="X6mfz31qRL9-IjD52ETg-41" value="&lt;span style=&quot;font-size: 16px; text-wrap: nowrap;&quot;&gt;+remove_phone(phone: str) : : Phone&lt;/span&gt;" style="text;align=left;verticalAlign=top;spacingLeft=4;spacingRight=4;overflow=hidden;rotatable=0;points=[[0,0.5],[1,0.5]];portConstraint=eastwest;whiteSpace=wrap;html=1;fontSize=16;fontFamily=Helvetica;swimlaneLine=1;fontColor=default;" vertex="1" parent="1">
          <mxGeometry x="370" y="822" width="420" height="30" as="geometry" />
        </mxCell>
        <mxCell id="X6mfz31qRL9-IjD52ETg-44" value="&lt;br style=&quot;font-size: 16px;&quot;&gt;&lt;div style=&quot;font-size: 16px;&quot;&gt;&lt;/div&gt;" style="text;align=left;verticalAlign=top;spacingLeft=4;spacingRight=4;overflow=hidden;rotatable=0;points=[[0,0.5],[1,0.5]];portConstraint=eastwest;whiteSpace=wrap;html=1;fontSize=16;fontFamily=Helvetica;swimlaneLine=1;fontColor=default;" vertex="1" parent="1">
          <mxGeometry x="370" y="780" width="420" height="10" as="geometry" />
        </mxCell>
        <mxCell id="X6mfz31qRL9-IjD52ETg-52" value="&lt;span style=&quot;font-size: 16px; text-wrap: nowrap;&quot;&gt;+edit_birthday(new_birthday: str)&lt;/span&gt;" style="text;align=left;verticalAlign=top;spacingLeft=4;spacingRight=4;overflow=hidden;rotatable=0;points=[[0,0.5],[1,0.5]];portConstraint=eastwest;whiteSpace=wrap;html=1;fontSize=16;fontFamily=Helvetica;swimlaneLine=1;fontColor=default;" vertex="1" parent="1">
          <mxGeometry x="370" y="880" width="430" height="26" as="geometry" />
        </mxCell>
        <mxCell id="X6mfz31qRL9-IjD52ETg-54" value="&lt;span style=&quot;font-family: &amp;quot;trebuchet ms&amp;quot;, verdana, arial, sans-serif; text-wrap: nowrap;&quot;&gt;+edit_phone(old_phone: str, new_phone: str)&lt;/span&gt;" style="text;align=left;verticalAlign=top;spacingLeft=4;spacingRight=4;overflow=hidden;rotatable=0;points=[[0,0.5],[1,0.5]];portConstraint=eastwest;whiteSpace=wrap;html=1;fontSize=16;fontFamily=Helvetica;swimlaneLine=1;fontColor=default;" vertex="1" parent="1">
          <mxGeometry x="370" y="852" width="430" height="26" as="geometry" />
        </mxCell>
        <mxCell id="X6mfz31qRL9-IjD52ETg-63" value="«extends Field»&lt;br style=&quot;font-size: 16px;&quot;&gt;&lt;b style=&quot;font-size: 16px;&quot;&gt;Name&lt;/b&gt;" style="html=1;whiteSpace=wrap;fontSize=16;swimlaneLine=1;fontColor=default;" vertex="1" parent="1">
          <mxGeometry x="200" y="980" width="150" height="60" as="geometry" />
        </mxCell>
        <mxCell id="X6mfz31qRL9-IjD52ETg-70" value="«extends Field»&lt;br style=&quot;font-size: 16px;&quot;&gt;&lt;b style=&quot;font-size: 16px;&quot;&gt;Birthday&lt;/b&gt;" style="html=1;whiteSpace=wrap;fontSize=16;swimlaneLine=1;fontColor=default;" vertex="1" parent="1">
          <mxGeometry x="830" y="980" width="130" height="60" as="geometry" />
        </mxCell>
        <mxCell id="X6mfz31qRL9-IjD52ETg-71" value="" style="endArrow=none;html=1;rounded=0;entryX=0.5;entryY=0;entryDx=0;entryDy=0;fontSize=16;swimlaneLine=1;fontColor=default;" edge="1" parent="1" source="X6mfz31qRL9-IjD52ETg-72" target="X6mfz31qRL9-IjD52ETg-70">
          <mxGeometry width="50" height="50" relative="1" as="geometry">
            <mxPoint x="820" y="910" as="sourcePoint" />
            <mxPoint x="920" y="900" as="targetPoint" />
          </mxGeometry>
        </mxCell>
        <mxCell id="X6mfz31qRL9-IjD52ETg-74" value="" style="endArrow=none;html=1;rounded=0;entryX=0.5;entryY=0;entryDx=0;entryDy=0;fontSize=16;swimlaneLine=1;fontColor=default;" edge="1" parent="1" target="X6mfz31qRL9-IjD52ETg-72">
          <mxGeometry width="50" height="50" relative="1" as="geometry">
            <mxPoint x="820" y="910" as="sourcePoint" />
            <mxPoint x="905" y="980" as="targetPoint" />
          </mxGeometry>
        </mxCell>
        <mxCell id="X6mfz31qRL9-IjD52ETg-72" value="" style="rhombus;whiteSpace=wrap;html=1;rotation=-45;fontSize=16;swimlaneLine=1;fontColor=default;" vertex="1" parent="1">
          <mxGeometry x="800" y="897.54" width="20" height="24" as="geometry" />
        </mxCell>
        <mxCell id="X6mfz31qRL9-IjD52ETg-76" value="" style="endArrow=none;html=1;rounded=0;entryX=0.5;entryY=1;entryDx=0;entryDy=0;exitX=0.843;exitY=0.016;exitDx=0;exitDy=0;exitPerimeter=0;fontSize=16;swimlaneLine=1;fontColor=default;" edge="1" parent="1" source="X6mfz31qRL9-IjD52ETg-63" target="X6mfz31qRL9-IjD52ETg-78">
          <mxGeometry width="50" height="50" relative="1" as="geometry">
            <mxPoint x="300" y="970" as="sourcePoint" />
            <mxPoint x="353.02544015668764" y="910.0027938885916" as="targetPoint" />
          </mxGeometry>
        </mxCell>
        <mxCell id="X6mfz31qRL9-IjD52ETg-78" value="" style="rhombus;whiteSpace=wrap;html=1;rotation=40;fontSize=16;swimlaneLine=1;fontColor=default;" vertex="1" parent="1">
          <mxGeometry x="350" y="892" width="20" height="28" as="geometry" />
        </mxCell>
        <mxCell id="X6mfz31qRL9-IjD52ETg-82" value="«extends Field»&lt;br style=&quot;font-size: 16px;&quot;&gt;&lt;b style=&quot;font-size: 16px;&quot;&gt;Phone&lt;/b&gt;" style="html=1;whiteSpace=wrap;fontSize=16;swimlaneLine=1;fontColor=default;" vertex="1" parent="1">
          <mxGeometry x="445" y="1000" width="270" height="110" as="geometry" />
        </mxCell>
        <mxCell id="X6mfz31qRL9-IjD52ETg-83" value="-validate_phone(phone:str) : : bool" style="text;strokeColor=none;fillColor=none;align=left;verticalAlign=top;spacingLeft=4;spacingRight=4;overflow=hidden;rotatable=0;points=[[0,0.5],[1,0.5]];portConstraint=eastwest;whiteSpace=wrap;html=1;fontSize=16;fontColor=default;" vertex="1" parent="1">
          <mxGeometry x="445" y="1110" width="260" height="45" as="geometry" />
        </mxCell>
        <mxCell id="X6mfz31qRL9-IjD52ETg-89" value="" style="endArrow=none;html=1;rounded=0;exitX=0.5;exitY=0;exitDx=0;exitDy=0;fontSize=16;swimlaneLine=1;fontColor=default;" edge="1" parent="1" source="X6mfz31qRL9-IjD52ETg-82">
          <mxGeometry width="50" height="50" relative="1" as="geometry">
            <mxPoint x="580" y="970" as="sourcePoint" />
            <mxPoint x="580" y="950" as="targetPoint" />
          </mxGeometry>
        </mxCell>
        <mxCell id="X6mfz31qRL9-IjD52ETg-90" value="" style="rhombus;whiteSpace=wrap;html=1;fontSize=16;swimlaneLine=1;fontColor=default;" vertex="1" parent="1">
          <mxGeometry x="570" y="920" width="20" height="30" as="geometry" />
        </mxCell>
        <mxCell id="X6mfz31qRL9-IjD52ETg-101" value="&lt;font style=&quot;font-size: 16px;&quot;&gt;ContactApp&lt;/font&gt;" style="swimlane;fontStyle=0;childLayout=stackLayout;horizontal=1;startSize=30;fillColor=none;horizontalStack=0;resizeParent=1;resizeParentMax=0;resizeLast=0;collapsible=1;marginBottom=0;whiteSpace=wrap;html=1;fontColor=default;fontSize=16;" vertex="1" parent="1">
          <mxGeometry x="430" y="-410" width="240" height="590" as="geometry" />
        </mxCell>
        <mxCell id="X6mfz31qRL9-IjD52ETg-102" value="&lt;font style=&quot;font-size: 16px;&quot;&gt;-view: BaseView&lt;/font&gt;" style="text;strokeColor=none;fillColor=none;align=left;verticalAlign=top;spacingLeft=4;spacingRight=4;overflow=hidden;rotatable=0;points=[[0,0.5],[1,0.5]];portConstraint=eastwest;whiteSpace=wrap;html=1;fontColor=default;fontSize=16;" vertex="1" parent="X6mfz31qRL9-IjD52ETg-101">
          <mxGeometry y="30" width="240" height="40" as="geometry" />
        </mxCell>
        <mxCell id="X6mfz31qRL9-IjD52ETg-103" value="&lt;font style=&quot;font-size: 16px;&quot;&gt;-book: AddressBokk&lt;/font&gt;" style="text;strokeColor=none;fillColor=none;align=left;verticalAlign=top;spacingLeft=4;spacingRight=4;overflow=hidden;rotatable=0;points=[[0,0.5],[1,0.5]];portConstraint=eastwest;whiteSpace=wrap;html=1;fontColor=default;fontSize=16;" vertex="1" parent="X6mfz31qRL9-IjD52ETg-101">
          <mxGeometry y="70" width="240" height="40" as="geometry" />
        </mxCell>
        <mxCell id="X6mfz31qRL9-IjD52ETg-104" value="&lt;font style=&quot;font-size: 16px;&quot;&gt;-command: dict&lt;/font&gt;" style="text;strokeColor=none;fillColor=none;align=left;verticalAlign=top;spacingLeft=4;spacingRight=4;overflow=hidden;rotatable=0;points=[[0,0.5],[1,0.5]];portConstraint=eastwest;whiteSpace=wrap;html=1;fontColor=default;fontSize=16;" vertex="1" parent="X6mfz31qRL9-IjD52ETg-101">
          <mxGeometry y="110" width="240" height="40" as="geometry" />
        </mxCell>
        <mxCell id="X6mfz31qRL9-IjD52ETg-107" value="&lt;span style=&quot;font-family: &amp;quot;trebuchet ms&amp;quot;, verdana, arial, sans-serif; font-size: 16px; text-wrap: nowrap;&quot;&gt;+hello(args)&lt;/span&gt;" style="text;strokeColor=none;fillColor=none;align=left;verticalAlign=top;spacingLeft=4;spacingRight=4;overflow=hidden;rotatable=0;points=[[0,0.5],[1,0.5]];portConstraint=eastwest;whiteSpace=wrap;html=1;fontColor=default;fontSize=16;" vertex="1" parent="X6mfz31qRL9-IjD52ETg-101">
          <mxGeometry y="150" width="240" height="40" as="geometry" />
        </mxCell>
        <mxCell id="X6mfz31qRL9-IjD52ETg-108" value="&lt;span style=&quot;font-family: &amp;quot;trebuchet ms&amp;quot;, verdana, arial, sans-serif; font-size: 16px; text-wrap: nowrap;&quot;&gt;+add_contact(args)&lt;/span&gt;" style="text;strokeColor=none;fillColor=none;align=left;verticalAlign=top;spacingLeft=4;spacingRight=4;overflow=hidden;rotatable=0;points=[[0,0.5],[1,0.5]];portConstraint=eastwest;whiteSpace=wrap;html=1;fontColor=default;fontSize=16;" vertex="1" parent="X6mfz31qRL9-IjD52ETg-101">
          <mxGeometry y="190" width="240" height="40" as="geometry" />
        </mxCell>
        <mxCell id="X6mfz31qRL9-IjD52ETg-109" value="&lt;span style=&quot;font-family: &amp;quot;trebuchet ms&amp;quot;, verdana, arial, sans-serif; font-size: 16px; text-wrap: nowrap;&quot;&gt;+change_contact(args)&lt;/span&gt;" style="text;strokeColor=none;fillColor=none;align=left;verticalAlign=top;spacingLeft=4;spacingRight=4;overflow=hidden;rotatable=0;points=[[0,0.5],[1,0.5]];portConstraint=eastwest;whiteSpace=wrap;html=1;fontColor=default;fontSize=16;" vertex="1" parent="X6mfz31qRL9-IjD52ETg-101">
          <mxGeometry y="230" width="240" height="40" as="geometry" />
        </mxCell>
        <mxCell id="X6mfz31qRL9-IjD52ETg-110" value="&lt;font style=&quot;font-size: 16px;&quot;&gt;+&lt;/font&gt;&lt;span style=&quot;font-family: &amp;quot;trebuchet ms&amp;quot;, verdana, arial, sans-serif; font-size: 16px; text-wrap: nowrap;&quot;&gt;show_phone(args)&lt;/span&gt;" style="text;strokeColor=none;fillColor=none;align=left;verticalAlign=top;spacingLeft=4;spacingRight=4;overflow=hidden;rotatable=0;points=[[0,0.5],[1,0.5]];portConstraint=eastwest;whiteSpace=wrap;html=1;fontColor=default;fontSize=16;" vertex="1" parent="X6mfz31qRL9-IjD52ETg-101">
          <mxGeometry y="270" width="240" height="40" as="geometry" />
        </mxCell>
        <mxCell id="X6mfz31qRL9-IjD52ETg-111" value="&lt;span style=&quot;font-family: &amp;quot;trebuchet ms&amp;quot;, verdana, arial, sans-serif; font-size: 16px; text-wrap: nowrap;&quot;&gt;+show_all_contacts(args)&lt;/span&gt;" style="text;strokeColor=none;fillColor=none;align=left;verticalAlign=top;spacingLeft=4;spacingRight=4;overflow=hidden;rotatable=0;points=[[0,0.5],[1,0.5]];portConstraint=eastwest;whiteSpace=wrap;html=1;fontColor=default;fontSize=16;" vertex="1" parent="X6mfz31qRL9-IjD52ETg-101">
          <mxGeometry y="310" width="240" height="40" as="geometry" />
        </mxCell>
        <mxCell id="X6mfz31qRL9-IjD52ETg-112" value="&lt;font style=&quot;font-size: 16px;&quot;&gt;+&lt;/font&gt;&lt;span style=&quot;font-family: &amp;quot;trebuchet ms&amp;quot;, verdana, arial, sans-serif; font-size: 16px; text-wrap: nowrap;&quot;&gt;add_birthday(args)&lt;/span&gt;" style="text;strokeColor=none;fillColor=none;align=left;verticalAlign=top;spacingLeft=4;spacingRight=4;overflow=hidden;rotatable=0;points=[[0,0.5],[1,0.5]];portConstraint=eastwest;whiteSpace=wrap;html=1;fontColor=default;fontSize=16;" vertex="1" parent="X6mfz31qRL9-IjD52ETg-101">
          <mxGeometry y="350" width="240" height="40" as="geometry" />
        </mxCell>
        <mxCell id="X6mfz31qRL9-IjD52ETg-113" value="" style="endArrow=none;html=1;rounded=0;entryX=1.004;entryY=-0.087;entryDx=0;entryDy=0;entryPerimeter=0;fontColor=default;fontSize=16;" edge="1" parent="X6mfz31qRL9-IjD52ETg-101" target="X6mfz31qRL9-IjD52ETg-107">
          <mxGeometry width="50" height="50" relative="1" as="geometry">
            <mxPoint y="147" as="sourcePoint" />
            <mxPoint x="240" y="140" as="targetPoint" />
          </mxGeometry>
        </mxCell>
        <mxCell id="X6mfz31qRL9-IjD52ETg-114" value="&lt;font style=&quot;font-size: 16px;&quot;&gt;+&lt;/font&gt;&lt;span style=&quot;font-family: &amp;quot;trebuchet ms&amp;quot;, verdana, arial, sans-serif; font-size: 16px; text-wrap: nowrap;&quot;&gt;show_birthday(args)&lt;/span&gt;" style="text;strokeColor=none;fillColor=none;align=left;verticalAlign=top;spacingLeft=4;spacingRight=4;overflow=hidden;rotatable=0;points=[[0,0.5],[1,0.5]];portConstraint=eastwest;whiteSpace=wrap;html=1;fontColor=default;fontSize=16;" vertex="1" parent="X6mfz31qRL9-IjD52ETg-101">
          <mxGeometry y="390" width="240" height="40" as="geometry" />
        </mxCell>
        <mxCell id="X6mfz31qRL9-IjD52ETg-115" value="&lt;span style=&quot;font-family: &amp;quot;trebuchet ms&amp;quot;, verdana, arial, sans-serif; font-size: 16px; text-wrap: nowrap;&quot;&gt;+show_birthdays(args)&lt;/span&gt;" style="text;strokeColor=none;fillColor=none;align=left;verticalAlign=top;spacingLeft=4;spacingRight=4;overflow=hidden;rotatable=0;points=[[0,0.5],[1,0.5]];portConstraint=eastwest;whiteSpace=wrap;html=1;fontColor=default;fontSize=16;" vertex="1" parent="X6mfz31qRL9-IjD52ETg-101">
          <mxGeometry y="430" width="240" height="40" as="geometry" />
        </mxCell>
        <mxCell id="X6mfz31qRL9-IjD52ETg-116" value="&lt;span style=&quot;font-family: &amp;quot;trebuchet ms&amp;quot;, verdana, arial, sans-serif; font-size: 16px; text-wrap: nowrap;&quot;&gt;+exit(args)&lt;/span&gt;" style="text;strokeColor=none;fillColor=none;align=left;verticalAlign=top;spacingLeft=4;spacingRight=4;overflow=hidden;rotatable=0;points=[[0,0.5],[1,0.5]];portConstraint=eastwest;whiteSpace=wrap;html=1;fontColor=default;fontSize=16;" vertex="1" parent="X6mfz31qRL9-IjD52ETg-101">
          <mxGeometry y="470" width="240" height="40" as="geometry" />
        </mxCell>
        <mxCell id="X6mfz31qRL9-IjD52ETg-117" value="&lt;span style=&quot;font-family: &amp;quot;trebuchet ms&amp;quot;, verdana, arial, sans-serif; font-size: 16px; text-wrap: nowrap;&quot;&gt;+parse_input(user_input)&lt;/span&gt;" style="text;strokeColor=none;fillColor=none;align=left;verticalAlign=top;spacingLeft=4;spacingRight=4;overflow=hidden;rotatable=0;points=[[0,0.5],[1,0.5]];portConstraint=eastwest;whiteSpace=wrap;html=1;fontColor=default;fontSize=16;" vertex="1" parent="X6mfz31qRL9-IjD52ETg-101">
          <mxGeometry y="510" width="240" height="40" as="geometry" />
        </mxCell>
        <mxCell id="X6mfz31qRL9-IjD52ETg-118" value="&lt;font style=&quot;font-size: 16px;&quot;&gt;+run()&lt;/font&gt;" style="text;strokeColor=none;fillColor=none;align=left;verticalAlign=top;spacingLeft=4;spacingRight=4;overflow=hidden;rotatable=0;points=[[0,0.5],[1,0.5]];portConstraint=eastwest;whiteSpace=wrap;html=1;fontColor=default;fontSize=16;" vertex="1" parent="X6mfz31qRL9-IjD52ETg-101">
          <mxGeometry y="550" width="240" height="40" as="geometry" />
        </mxCell>
        <mxCell id="X6mfz31qRL9-IjD52ETg-119" value="" style="endArrow=classic;html=1;rounded=0;entryX=0.531;entryY=1.06;entryDx=0;entryDy=0;entryPerimeter=0;exitX=0.5;exitY=0;exitDx=0;exitDy=0;fontColor=default;fontSize=16;" edge="1" parent="1" source="X6mfz31qRL9-IjD52ETg-13" target="X6mfz31qRL9-IjD52ETg-118">
          <mxGeometry width="50" height="50" relative="1" as="geometry">
            <mxPoint x="340" y="260" as="sourcePoint" />
            <mxPoint x="390" y="210" as="targetPoint" />
          </mxGeometry>
        </mxCell>
        <mxCell id="X6mfz31qRL9-IjD52ETg-128" value="BaseView" style="swimlane;fontStyle=1;align=center;verticalAlign=top;childLayout=stackLayout;horizontal=1;startSize=26;horizontalStack=0;resizeParent=1;resizeParentMax=0;resizeLast=0;collapsible=1;marginBottom=0;whiteSpace=wrap;html=1;fontColor=default;fontSize=16;" vertex="1" parent="1">
          <mxGeometry x="130" y="-650" width="255" height="164" as="geometry" />
        </mxCell>
        <mxCell id="X6mfz31qRL9-IjD52ETg-129" value="&lt;span style=&quot;font-family: &amp;quot;trebuchet ms&amp;quot;, verdana, arial, sans-serif; font-size: 16px; text-wrap: nowrap;&quot;&gt;+__abstractmethods__&lt;/span&gt;" style="text;strokeColor=none;fillColor=none;align=left;verticalAlign=top;spacingLeft=4;spacingRight=4;overflow=hidden;rotatable=0;points=[[0,0.5],[1,0.5]];portConstraint=eastwest;whiteSpace=wrap;html=1;fontColor=default;fontSize=16;" vertex="1" parent="X6mfz31qRL9-IjD52ETg-128">
          <mxGeometry y="26" width="255" height="26" as="geometry" />
        </mxCell>
        <mxCell id="X6mfz31qRL9-IjD52ETg-130" value="" style="line;strokeWidth=1;fillColor=none;align=left;verticalAlign=middle;spacingTop=-1;spacingLeft=3;spacingRight=3;rotatable=0;labelPosition=right;points=[];portConstraint=eastwest;strokeColor=inherit;fontColor=default;fontSize=16;" vertex="1" parent="X6mfz31qRL9-IjD52ETg-128">
          <mxGeometry y="52" width="255" height="8" as="geometry" />
        </mxCell>
        <mxCell id="X6mfz31qRL9-IjD52ETg-131" value="&lt;span style=&quot;font-family: &amp;quot;trebuchet ms&amp;quot;, verdana, arial, sans-serif; font-size: 16px; text-wrap: nowrap;&quot;&gt;+show_contacts(contacts)&lt;/span&gt;" style="text;strokeColor=none;fillColor=none;align=left;verticalAlign=top;spacingLeft=4;spacingRight=4;overflow=hidden;rotatable=0;points=[[0,0.5],[1,0.5]];portConstraint=eastwest;whiteSpace=wrap;html=1;fontColor=default;fontSize=16;" vertex="1" parent="X6mfz31qRL9-IjD52ETg-128">
          <mxGeometry y="60" width="255" height="26" as="geometry" />
        </mxCell>
        <mxCell id="X6mfz31qRL9-IjD52ETg-132" value="&lt;span style=&quot;font-family: &amp;quot;trebuchet ms&amp;quot;, verdana, arial, sans-serif; font-size: 16px; text-wrap: nowrap;&quot;&gt;+show_commands(commands)&lt;/span&gt;" style="text;strokeColor=none;fillColor=none;align=left;verticalAlign=top;spacingLeft=4;spacingRight=4;overflow=hidden;rotatable=0;points=[[0,0.5],[1,0.5]];portConstraint=eastwest;whiteSpace=wrap;html=1;fontColor=default;fontSize=16;" vertex="1" parent="X6mfz31qRL9-IjD52ETg-128">
          <mxGeometry y="86" width="255" height="26" as="geometry" />
        </mxCell>
        <mxCell id="X6mfz31qRL9-IjD52ETg-133" value="&lt;span style=&quot;font-family: &amp;quot;trebuchet ms&amp;quot;, verdana, arial, sans-serif; font-size: 16px; text-wrap: nowrap;&quot;&gt;+show_message(message)&lt;/span&gt;" style="text;strokeColor=none;fillColor=none;align=left;verticalAlign=top;spacingLeft=4;spacingRight=4;overflow=hidden;rotatable=0;points=[[0,0.5],[1,0.5]];portConstraint=eastwest;whiteSpace=wrap;html=1;fontColor=default;fontSize=16;" vertex="1" parent="X6mfz31qRL9-IjD52ETg-128">
          <mxGeometry y="112" width="255" height="26" as="geometry" />
        </mxCell>
        <mxCell id="X6mfz31qRL9-IjD52ETg-134" value="&lt;span style=&quot;font-family: &amp;quot;trebuchet ms&amp;quot;, verdana, arial, sans-serif; font-size: 16px; text-wrap: nowrap;&quot;&gt;+get_input(prompt)&lt;/span&gt;" style="text;strokeColor=none;fillColor=none;align=left;verticalAlign=top;spacingLeft=4;spacingRight=4;overflow=hidden;rotatable=0;points=[[0,0.5],[1,0.5]];portConstraint=eastwest;whiteSpace=wrap;html=1;fontColor=default;fontSize=16;" vertex="1" parent="X6mfz31qRL9-IjD52ETg-128">
          <mxGeometry y="138" width="255" height="26" as="geometry" />
        </mxCell>
        <mxCell id="X6mfz31qRL9-IjD52ETg-135" value="«extends BseView»&lt;br style=&quot;font-size: 16px;&quot;&gt;&lt;b style=&quot;font-size: 16px;&quot;&gt;Console View&lt;/b&gt;" style="html=1;whiteSpace=wrap;fontSize=16;fontColor=default;" vertex="1" parent="1">
          <mxGeometry x="181.25" y="-390" width="152.5" height="70" as="geometry" />
        </mxCell>
        <mxCell id="X6mfz31qRL9-IjD52ETg-136" value="Field" style="swimlane;fontStyle=1;align=center;verticalAlign=top;childLayout=stackLayout;horizontal=1;startSize=26;horizontalStack=0;resizeParent=1;resizeParentMax=0;resizeLast=0;collapsible=1;marginBottom=0;whiteSpace=wrap;html=1;fontColor=default;fontSize=16;" vertex="1" parent="1">
          <mxGeometry x="-120" y="-650" width="160" height="86" as="geometry" />
        </mxCell>
        <mxCell id="X6mfz31qRL9-IjD52ETg-137" value="&lt;span style=&quot;font-family: &amp;quot;trebuchet ms&amp;quot;, verdana, arial, sans-serif; font-size: 16px; text-wrap: nowrap;&quot;&gt;-value: any&lt;/span&gt;" style="text;strokeColor=none;fillColor=none;align=left;verticalAlign=top;spacingLeft=4;spacingRight=4;overflow=hidden;rotatable=0;points=[[0,0.5],[1,0.5]];portConstraint=eastwest;whiteSpace=wrap;html=1;fontColor=default;fontSize=16;" vertex="1" parent="X6mfz31qRL9-IjD52ETg-136">
          <mxGeometry y="26" width="160" height="26" as="geometry" />
        </mxCell>
        <mxCell id="X6mfz31qRL9-IjD52ETg-138" value="" style="line;strokeWidth=1;fillColor=none;align=left;verticalAlign=middle;spacingTop=-1;spacingLeft=3;spacingRight=3;rotatable=0;labelPosition=right;points=[];portConstraint=eastwest;strokeColor=inherit;fontColor=default;fontSize=16;" vertex="1" parent="X6mfz31qRL9-IjD52ETg-136">
          <mxGeometry y="52" width="160" height="8" as="geometry" />
        </mxCell>
        <mxCell id="X6mfz31qRL9-IjD52ETg-139" value="&lt;span style=&quot;font-family: &amp;quot;trebuchet ms&amp;quot;, verdana, arial, sans-serif; font-size: 16px; text-wrap: nowrap;&quot;&gt;+__str__()&lt;/span&gt;" style="text;strokeColor=none;fillColor=none;align=left;verticalAlign=top;spacingLeft=4;spacingRight=4;overflow=hidden;rotatable=0;points=[[0,0.5],[1,0.5]];portConstraint=eastwest;whiteSpace=wrap;html=1;fontColor=default;fontSize=16;" vertex="1" parent="X6mfz31qRL9-IjD52ETg-136">
          <mxGeometry y="60" width="160" height="26" as="geometry" />
        </mxCell>
        <mxCell id="X6mfz31qRL9-IjD52ETg-141" value="" style="endArrow=none;html=1;rounded=0;entryX=0.5;entryY=0;entryDx=0;entryDy=0;" edge="1" parent="1" target="X6mfz31qRL9-IjD52ETg-101">
          <mxGeometry width="50" height="50" relative="1" as="geometry">
            <mxPoint x="410" y="-520" as="sourcePoint" />
            <mxPoint x="380" y="-490" as="targetPoint" />
          </mxGeometry>
        </mxCell>
        <mxCell id="X6mfz31qRL9-IjD52ETg-142" value="" style="triangle;whiteSpace=wrap;html=1;rotation=-150;" vertex="1" parent="1">
          <mxGeometry x="384" y="-540" width="30" height="34" as="geometry" />
        </mxCell>
        <mxCell id="X6mfz31qRL9-IjD52ETg-143" value="" style="triangle;whiteSpace=wrap;html=1;rotation=-90;" vertex="1" parent="1">
          <mxGeometry x="243.75" y="-486" width="27.5" height="30" as="geometry" />
        </mxCell>
        <mxCell id="X6mfz31qRL9-IjD52ETg-144" value="" style="endArrow=none;html=1;rounded=0;exitX=0.5;exitY=0;exitDx=0;exitDy=0;entryX=0;entryY=0.5;entryDx=0;entryDy=0;" edge="1" parent="1" source="X6mfz31qRL9-IjD52ETg-135" target="X6mfz31qRL9-IjD52ETg-143">
          <mxGeometry width="50" height="50" relative="1" as="geometry">
            <mxPoint x="330" y="-440" as="sourcePoint" />
            <mxPoint x="380" y="-490" as="targetPoint" />
          </mxGeometry>
        </mxCell>
      </root>
    </mxGraphModel>
  </diagram>
</mxfile>
